<svg xmlns="http://www.w3.org/2000/svg" xmlns:xlink="http://www.w3.org/1999/xlink" viewBox="0 0 516 516"><defs><style>.cls-1{isolation:isolate;}.cls-2{fill:#cfb28c;}.cls-3{fill:url(#linear-gradient);}.cls-4{fill:#b34d09;opacity:0.8;}.cls-5{fill:url(#linear-gradient-2);}.cls-6{fill:#b32f2f;opacity:0.2;}.cls-7{fill:url(#linear-gradient-3);}.cls-8{fill:#959ecf;}.cls-9{fill:#fe3a44;}.cls-10{fill:#3977a9;}.cls-11{fill:#b51f1b;}.cls-12,.cls-13{fill:#590800;mix-blend-mode:multiply;}.cls-12{opacity:0.05;}.cls-13{opacity:0.07;}.cls-14,.cls-23{fill:#fff;}.cls-15{fill:#fff5e6;}.cls-16{fill:url(#linear-gradient-4);}.cls-17{fill:url(#linear-gradient-5);}.cls-18{fill:#ab1118;}.cls-19{fill:#e1171b;}.cls-19,.cls-23{opacity:0.7;}.cls-20{fill:#f74346;opacity:0.5;}.cls-21{fill:#f79421;}.cls-22{fill:#eb6000;}</style><linearGradient id="linear-gradient" x1="102.37" y1="199.75" x2="308.53" y2="376.45" gradientUnits="userSpaceOnUse"><stop offset="0" stop-color="#de8340"/><stop offset="1" stop-color="#d16b27"/></linearGradient><linearGradient id="linear-gradient-2" x1="86.62" y1="145.39" x2="347.62" y2="242.45" gradientUnits="userSpaceOnUse"><stop offset="0" stop-color="#ffdedb"/><stop offset="1" stop-color="#ff9fa8"/></linearGradient><linearGradient id="linear-gradient-3" x1="182.26" y1="316.7" x2="494.16" y2="545.95" gradientUnits="userSpaceOnUse"><stop offset="0" stop-color="#fff0db"/><stop offset="1" stop-color="#e0c0a8"/></linearGradient><linearGradient id="linear-gradient-4" x1="306.3" y1="63.13" x2="245.46" y2="119.29" gradientTransform="translate(8.76 38.35) rotate(-16)" gradientUnits="userSpaceOnUse"><stop offset="0" stop-color="#68b728"/><stop offset="0.28" stop-color="#63aa23"/><stop offset="0.8" stop-color="#578917"/><stop offset="1" stop-color="#527a11"/></linearGradient><linearGradient id="linear-gradient-5" x1="440.4" y1="-20.02" x2="502.48" y2="102.54" gradientTransform="translate(-176.56 -101.37) rotate(20.48)" gradientUnits="userSpaceOnUse"><stop offset="0" stop-color="#e1171b"/><stop offset="1" stop-color="#bf1b23"/></linearGradient></defs><title>Artboard 10</title><g class="cls-1"><g id="Layer_1" data-name="Layer 1"><path class="cls-2" d="M86.49,265.63c.31-7.07,3.21-16,12-16.88,21.43-2.28,60.34-15.87,150.31-15.87,98.11,0,143.18,18.29,166.26,19.15,16.27.6,13.83,22.9,13.83,22.9s-67,62.56-152.73,68.64S86,276.42,86.49,265.63Z"/><path class="cls-3" d="M103.41,458.39c10.25,12.05,67.3,37.13,159.63,36.12,80.82-.89,142.52-25.92,153.62-37.69,6.86-7.26,3-148.24,3-243.14-20.09-4-106.8,22.65-163.78,26.57-49.8,3.43-160-44.5-159.94-22C97.67,283.44,98.49,452.61,103.41,458.39Z"/><path class="cls-4" d="M97.65,265.8s19,5.06,20.24,26.15c0,0,28.67-29.94,40.48,11,0,0,29.1-33.31,40.06,8.43,0,0,30.36-35.42,46.81,5.06,0,0,26.14-40.06,41.32-.84,0,0,21.51-43,40.49-5.48,0,0,23.61-41.33,41.32-12.23l14.76-15.6s14.34-19,27.41,2.95-90.66,72.11-90.66,72.11l-164-9.7L97.23,297Z"/><path class="cls-5" d="M93.18,218.49c-3.29-36.16,83.2-84.21,164.28-85.05,79.94-.82,167.23,44.09,165,80.38-2.28,36.89-97,64.18-170.12,63.73C186.58,277.15,96.43,254.1,93.18,218.49Z"/><path class="cls-6" d="M250.66,131.22c-50.28,6.12-103.32,42.09-99.47,68.8,4.12,28.62,73.16,43.83,124.33,40.2,43.39-3.08,105.28-17,107.4-48.61C384.86,162.68,314.65,123.42,250.66,131.22Z"/><path class="cls-7" d="M429.06,276.52c-.44-7.1-6.3-10.56-11-9.71-8.38,1.52-15.43,10.26-15.43,22.91,0,.26,0,.52,0,.78a22.63,22.63,0,0,0-42.46,11.18c0,.21,0,.41,0,.62a22.63,22.63,0,0,0-43.1,9.92c0,.18,0,.35,0,.53A22.58,22.58,0,0,0,274,314.32a22.58,22.58,0,0,0-43.23,2.52,22.61,22.61,0,0,0-43.41-5.55,22.61,22.61,0,0,0-42.62-9.85c-.67-12-8.64-22.75-20.62-22.75-6.62,0-12.48,3.42-16.56,8.49-.3-15.18-7-26.11-15.51-26.11-3.15,0-5.72,3.64-5.54,4.56.06,4.09,1.34,204.7,4,208.62C101.43,490.34,165.71,515,263.27,514c85.4-.94,158.73-23.2,165.07-39.08C429.63,471.68,429.84,367.7,429.06,276.52Z"/><ellipse class="cls-8" cx="107.94" cy="317.09" rx="7.33" ry="8.1"/><ellipse class="cls-9" cx="151.79" cy="328.9" rx="7.33" ry="8.1"/><ellipse class="cls-9" cx="124.5" cy="369.54" rx="6.62" ry="8.1"/><ellipse class="cls-9" cx="105.81" cy="411.28" rx="6.62" ry="8.1"/><ellipse class="cls-9" cx="400.84" cy="359.84" rx="6.62" ry="8.1"/><ellipse class="cls-10" cx="400.09" cy="456.73" rx="6.62" ry="8.1"/><ellipse class="cls-11" cx="124.68" cy="457.1" rx="6.62" ry="8.1"/><path class="cls-9" d="M94,447.3c0-3.9-2.25-7.15-5.25-7.92.14,5.81.3,11.1.46,15.71C91.94,454.12,94,451,94,447.3Z"/><path class="cls-9" d="M423.91,443.67c0,3.9,2.26,7.16,5.25,7.93.07-4.72.13-10,.17-15.89C426.25,436.4,423.91,439.7,423.91,443.67Z"/><ellipse class="cls-9" cx="416.02" cy="404.96" rx="6.62" ry="8.1"/><path class="cls-9" d="M424.58,349.72c0,3.75,2.08,6.89,4.91,7.82,0-5.15,0-10.37,0-15.63C426.64,342.85,424.58,346,424.58,349.72Z"/><path class="cls-9" d="M94.15,358.57c0-4.47-3-8.1-6.62-8.1h-.25c.06,5.35.12,10.77.19,16.19h.06C91.18,366.68,94.15,363.05,94.15,358.57Z"/><ellipse class="cls-10" cx="172.29" cy="377.13" rx="7.33" ry="8.1"/><ellipse class="cls-11" cx="219.09" cy="382.7" rx="7.33" ry="8.1"/><ellipse class="cls-9" cx="220.78" cy="476.22" rx="7.33" ry="8.1"/><ellipse class="cls-9" cx="171.02" cy="469.9" rx="7.33" ry="8.1"/><ellipse class="cls-9" cx="268.43" cy="384.3" rx="7.33" ry="8.1"/><ellipse class="cls-8" cx="268.01" cy="476.65" rx="7.33" ry="8.1"/><ellipse class="cls-9" cx="315.98" cy="379.65" rx="7.33" ry="8.1"/><ellipse class="cls-9" cx="316.5" cy="472.43" rx="7.33" ry="8.1"/><ellipse class="cls-8" cx="361.14" cy="373.69" rx="7.33" ry="8.1"/><ellipse class="cls-9" cx="359.25" cy="468.22" rx="7.33" ry="8.1"/><ellipse class="cls-9" cx="196.68" cy="335.48" rx="7.33" ry="8.1"/><ellipse class="cls-9" cx="244.56" cy="338.59" rx="7.33" ry="8.1"/><ellipse class="cls-9" cx="288.67" cy="338.33" rx="7.33" ry="8.1"/><ellipse class="cls-10" cx="334.21" cy="332.85" rx="7.33" ry="8.1"/><ellipse class="cls-9" cx="378.91" cy="323.15" rx="7.33" ry="8.1"/><ellipse class="cls-9" cx="418.55" cy="309.66" rx="7.33" ry="8.1"/><ellipse class="cls-10" cx="152.21" cy="422.09" rx="7.33" ry="8.1"/><ellipse class="cls-9" cx="197.1" cy="428.68" rx="7.33" ry="8.1"/><ellipse class="cls-9" cx="244.98" cy="431.79" rx="7.33" ry="8.1"/><ellipse class="cls-9" cx="289.09" cy="431.52" rx="7.33" ry="8.1"/><ellipse class="cls-9" cx="334.64" cy="426.04" rx="7.33" ry="8.1"/><ellipse class="cls-11" cx="379.88" cy="416.38" rx="7.33" ry="8.1"/><path class="cls-12" d="M429.06,276.52c-.44-7.1-6.3-10.56-11-9.71a17.38,17.38,0,0,0-11,7.56c1.9,15.62-1.91,81.58-12.13,104.71-26.71,79-102.15,116.81-173.67,116.81h-.84A189.05,189.05,0,0,1,124.45,470L88.8,442.41c.48,18.42,1,30.89,1.69,31.84C101.43,490.34,165.71,515,263.27,514c85.4-.94,158.73-23.2,165.07-39.08C429.63,471.68,429.84,367.7,429.06,276.52Z"/><path class="cls-13" d="M429.06,276.52c-.44-7.1-6.3-10.56-11-9.71-8.38,1.52-15.43,10.26-15.43,22.91,0,.26,0,.52,0,.78a22.63,22.63,0,0,0-42.46,11.18c0,.21,0,.41,0,.62a23,23,0,0,0-10.8-10.82c0,2.17,0,4.34,0,6.52.53,69.25,1,138.59-.66,207.85,44.24-8.13,75.51-20.84,79.55-31C429.63,471.68,429.84,367.7,429.06,276.52Z"/><path class="cls-14" d="M274.26,321.55s5.8-17.93,16.66-20.27c14.64-3.15,27,18.24,27,18.24s5.47-21.88,16.79-26.49c6.47-2.63,13.06-1.43,17.53.08a22.33,22.33,0,0,0-12.47-3.8,22.8,22.8,0,0,0-22.68,22.91c0,.18,0,.35,0,.53A22.58,22.58,0,0,0,274,314.32a22.58,22.58,0,0,0-43.23,2.52,22.61,22.61,0,0,0-43.41-5.55,22.61,22.61,0,0,0-42.62-9.85c-.67-12-8.64-22.75-20.62-22.75-6.62,0-12.48,3.42-16.56,8.49-.26-13.47-5.59-23.58-12.72-25.68,4.94,6.09,10.31,13.05,11.56,38.66,0,0,2.94-18.59,20.53-17.6,14.59.82,16.76,25.14,16.76,25.14s9.57-15.11,22.3-14.52c14.63.67,21.39,24.54,21.39,24.54s7.47-16.6,19.58-17.56c14.19-1.13,23.64,23.41,23.64,23.41s6.21-18.95,19.14-20.71C264.58,300.83,274.26,321.55,274.26,321.55Z"/><path class="cls-15" d="M252.69,93.64c-60.21,1-125.79,36-114.64,89.72,8.29,39.89,63.69,50.57,113.9,50,49.92-.52,114-14,120.19-50.61C381.08,129.88,314.83,92.59,252.69,93.64Z"/><path id="_Path_" data-name="&lt;Path&gt;" class="cls-16" d="M276.75,64.48s-7.82-23.79-6.89-34.08,7.78-28,10.6-28.4,10.9,38.9,10.9,38.9S310,18,316.22,19.21,306,53,306,53s36.12-6.73,41.62-3.56c1.5.86-11.24,14.34-25.16,19.74-10,3.89-34.85,4.29-34.85,4.29Z"/><g id="_Group_" data-name="&lt;Group&gt;"><g id="_Group_2" data-name="&lt;Group&gt;"><path id="_Path_2" data-name="&lt;Path&gt;" class="cls-17" d="M291.44,49.91c-35.39-22.37-71-25.25-96.92.7-24.13,24.22-45.67,104.93,6.54,141.16,49,34,116.44-10,133.45-50.65C346.58,112.31,323,69.84,291.44,49.91Z"/><path class="cls-18" d="M334.51,141.12c5.54-13.22,3.55-29.3-3.25-44.77.6,13.84-.46,28.68-5.64,40.52a45.54,45.54,0,0,1-3.45,6.44c-18.66,28.76-48.38,47.78-84.89,48.06-12.64.1-28.29-3.35-39.1-10.3-11.8-7.59-19.42-16.92-22.72-22.33a19.74,19.74,0,0,1,.69,2.75,71.1,71.1,0,0,0,24.91,30.28C250,225.74,317.5,181.75,334.51,141.12Z"/><path class="cls-18" d="M174,156.08a22.66,22.66,0,0,0,1.44,2.66A7.5,7.5,0,0,0,174,156.08Z"/><path class="cls-19" d="M274.78,40.91c-29.69-13.5-58.45-12.18-80.26,9.7-11.13,11.18-21.7,34.39-24.74,59.7,6.4,27.93,31.18,48.44,57.68,51.47,35.36,4.05,72.37-23.17,75.28-61.45C304.54,76.58,292.77,54.47,274.78,40.91Z"/><path class="cls-20" d="M251,42.56c-21.87-11.9-54.86,5.31-64.61,31-8,21.06-1,49.38,17.18,58.31,23.24,11.42,59.39-11.52,65.65-40.9C272.76,74.17,267.33,51.48,251,42.56Z"/><path id="_Path_3" data-name="&lt;Path&gt;" class="cls-21" d="M234.48,109.15c5,2.9,9.75-10.88,7.15-12C238.68,95.88,227.6,105.11,234.48,109.15Z"/><path id="_Path_4" data-name="&lt;Path&gt;" class="cls-21" d="M245.76,71.56c4.3,3.87,11.63-8.65,9.3-10.28C252.41,59.42,239.79,66.19,245.76,71.56Z"/><path id="_Path_5" data-name="&lt;Path&gt;" class="cls-21" d="M197.32,90.53c5.33,1.84,8-12,5.17-13.22C200.07,76.3,190.25,88.09,197.32,90.53Z"/><g id="_Group_3" data-name="&lt;Group&gt;"><path id="_Path_6" data-name="&lt;Path&gt;" class="cls-22" d="M315.2,125.78c5.57,2.11,7.89-13.58,4.82-14.72C317.43,110.1,308.87,123.39,315.2,125.78Z"/></g><g id="_Group_4" data-name="&lt;Group&gt;"><path id="_Path_7" data-name="&lt;Path&gt;" class="cls-21" d="M275.37,101c5.66,4.46,10.76-10.11,8-11.94S269.75,96.55,275.37,101Z"/></g><g id="_Group_5" data-name="&lt;Group&gt;"><path id="_Path_8" data-name="&lt;Path&gt;" class="cls-22" d="M287.28,157.42c4.34,3.78,11.45-8,9.19-10.18C294.56,145.36,281.53,152.42,287.28,157.42Z"/></g><g id="_Group_6" data-name="&lt;Group&gt;"><path id="_Path_9" data-name="&lt;Path&gt;" class="cls-22" d="M235.87,183.77c4.22,3.91,11.69-7.58,9.5-9.87C243.52,172,230.28,178.57,235.87,183.77Z"/></g><g id="_Group_7" data-name="&lt;Group&gt;"><path id="_Path_10" data-name="&lt;Path&gt;" class="cls-21" d="M251.15,148.71c5.41,3.07,9.22-10,6.8-11.26C255.09,135.91,245.15,145.3,251.15,148.71Z"/></g><g id="_Group_8" data-name="&lt;Group&gt;"><path id="_Path_11" data-name="&lt;Path&gt;" class="cls-21" d="M209.53,147.74c5.28,3.3,9.59-9.56,7.23-11C214,135.12,203.66,144.08,209.53,147.74Z"/></g><g id="_Group_9" data-name="&lt;Group&gt;"><path id="_Path_12" data-name="&lt;Path&gt;" class="cls-21" d="M202,119.55c5.91,3,8.34-11.27,6-12.36C206,106.27,195.78,116.44,202,119.55Z"/></g></g><path id="_Path_13" data-name="&lt;Path&gt;" class="cls-23" d="M236,47.51c-.21-3.56-5.23-5.68-11.39-4.11C218.8,44.87,214.4,49,214,52.24c-.57,4.09,5,6.76,11.66,5C231.5,55.61,236.18,51.1,236,47.51Z"/></g><path class="cls-23" d="M204.68,57.34a4.93,4.93,0,0,1,2.24,6.45,4.63,4.63,0,0,1-6,2.84,4.94,4.94,0,0,1-2.23-6.45A4.61,4.61,0,0,1,204.68,57.34Z"/><path class="cls-15" d="M164.43,152.35c17.28,13.42,44,21.81,84.66,20.77,41.43-1.06,76.14-14.14,93.06-25.88-13.77,43.64-54.95,71.71-97.44,68.27C208.92,212.61,177.37,187.79,164.43,152.35Z"/><path class="cls-12" d="M332.81,114l.81,6A74.27,74.27,0,0,1,325.14,158,86,86,0,0,1,277,210.67c-14.18,6.17-33.13,8.31-48.51,7.27-52.55-3.57-76.27-28.65-87.91-66.22a54.37,54.37,0,0,0-2.54,31.64c8.29,39.89,63.69,50.57,113.9,50,49.92-.52,114-14,120.19-50.61C377,154,359.65,129.89,332.81,114Z"/><path class="cls-12" d="M332.81,114l.81,6c.2,5.43-7.14,11.73-8,16.87,18.43,9.7,30.52,25.3,31.37,39.21.75,12.5-2.68,26.93-18.37,40.32-.16.52-1.83,1.61-2,2.12,18.94-8,32.82-19.63,35.53-35.72C377,154,359.65,129.89,332.81,114Z"/></g></g></svg>